OpenSim_Sub10_CSStiffKnee_RCS.mot
version=1
nRows=86
nColumns=11
inDegrees=no
endheader
time	Top_Thigh	Med_Thigh	Bot_Thigh	Top_Shank	2nd_Top_Shank	2nd_Bot_Shank	Bot_Shank	BNOx	BNOy	BNOZ
40.87000000	2016.51899285	1978.79919186	1796.26646687	1309.27116121	1494.73407265	1301.18134439	1307.52943658	0	0	0
40.88000000	2012.19937725	1978.34806565	1792.53821734	1309.51431744	1493.06998062	1301.66762268	1307.69143738	0	0	0
40.89000000	2008.13815900	1977.91298707	1788.78224720	1309.82117908	1491.47449053	1302.14786598	1307.82122054	0	0	0
40.90000000	2004.32536677	1977.48516087	1785.01546245	1310.18297346	1489.94890408	1302.62034530	1307.92032128	0	0	0
40.91000000	2000.75102923	1977.05579178	1781.25476911	1310.59092789	1488.49452297	1303.08333166	1307.99027481	0	0	0
40.92000000	1997.40517503	1976.61608454	1777.51707320	1311.03626971	1487.11264892	1303.53509607	1308.03261634	0	0	0
40.93000000	1994.27783284	1976.15724389	1773.81928072	1311.51022624	1485.80458363	1303.97390954	1308.04888109	0	0	0
40.94000000	1991.35903132	1975.67047456	1770.17829769	1312.00402481	1484.57162880	1304.39804308	1308.04060427	0	0	0
40.95000000	1988.63879913	1975.14698129	1766.61103012	1312.50889275	1483.41508615	1304.80576771	1308.00932108	0	0	0
40.96000000	1986.10716495	1974.57796882	1763.13438404	1313.01605738	1482.33625737	1305.19535443	1307.95656676	0	0	0
40.97000000	1983.75415742	1973.95464188	1759.76526545	1313.51674602	1481.33644418	1305.56507427	1307.88387650	0	0	0
40.98000000	1981.56980522	1973.26820521	1756.52058036	1314.00218601	1480.41694828	1305.91319824	1307.79278553	0	0	0
40.99000000	1979.54413700	1972.50986354	1753.41723480	1314.46360467	1479.57907137	1306.23799734	1307.68482904	0	0	0
41	1977.66718143	1971.67082162	1750.47213478	1314.89222932	1478.82411517	1306.53774259	1307.56154227	0	0	0
41.01000000	1975.92896717	1970.74228418	1747.70218631	1315.27928730	1478.15338138	1306.81070500	1307.42446042	0	0	0
41.02000000	1974.31952289	1969.71545595	1745.12429540	1315.61600593	1477.56817170	1307.05515559	1307.27511869	0	0	0
41.03000000	1972.82887724	1968.58154168	1742.75536807	1315.89361253	1477.06978785	1307.26936536	1307.11505232	0	0	0
41.04000000	1971.44705889	1967.33174610	1740.61231033	1316.10333443	1476.65953152	1307.45160534	1306.94579650	0	0	0
41.05000000	1970.16409651	1965.95727394	1738.71202820	1316.23639896	1476.33870442	1307.60014652	1306.76888646	0	0	0
41.06000000	1968.97001875	1964.44932995	1737.07142770	1316.28403345	1476.10860827	1307.71325993	1306.58585741	0	0	0
41.07000000	1967.85485428	1962.79911886	1735.70741483	1316.23746521	1475.97054476	1307.78921658	1306.39824455	0	0	0
41.08000000	1966.80863176	1960.99784541	1734.63689561	1316.08792159	1475.92581560	1307.82628748	1306.20758310	0	0	0
41.09000000	1965.82137986	1959.03671433	1733.87677605	1315.82662989	1475.97572250	1307.82274365	1306.01540828	0	0	0
41.10000000	1964.88312724	1956.90693036	1733.44396217	1315.44481745	1476.12156717	1307.77685609	1305.82325529	0	0	0
41.11000000	1963.98390255	1954.59969824	1733.35535999	1314.93371160	1476.36465130	1307.68689581	1305.63265936	0	0	0
41.12000000	1963.11373447	1952.10622270	1733.62787551	1314.28453966	1476.70627662	1307.55113384	1305.44515569	0	0	0
41.13000000	1962.26265165	1949.41770849	1734.27841475	1313.48852896	1477.14774482	1307.36784118	1305.26227949	0	0	0
41.14000000	1961.42068276	1946.52536033	1735.32388373	1312.53690682	1477.69035760	1307.13528885	1305.08556599	0	0	0
41.15000000	1960.57936583	1943.42308991	1736.77650569	1311.42346187	1478.33371536	1306.85253901	1304.91709945	0	0	0
41.16000000	1959.76495428	1940.16706858	1738.54080015	1310.20089262	1479.03828806	1306.53685037	1304.77159258	0	0	0
41.17000000	1959.03841692	1936.87572739	1740.41358292	1308.98080749	1479.72541522	1306.22367817	1304.67638650	0	0	0
41.18000000	1958.46223194	1933.67020433	1742.18698702	1307.87737617	1480.31473507	1305.94926881	1304.65937142	0	0	0
41.19000000	1958.09887751	1930.67163736	1743.65314549	1307.00476836	1480.72588582	1305.74986869	1304.74843751	0	0	0
41.20000000	1958.01083182	1928.00116448	1744.60419137	1306.47715377	1480.87850570	1305.66172421	1304.97147498	0	0	0
41.21000000	1958.26057305	1925.77992367	1744.83225768	1306.40870211	1480.69223290	1305.72108177	1305.35637401	0	0	0
41.22000000	1958.91057938	1924.12905291	1744.12947746	1306.91358308	1480.08670565	1305.96418775	1305.93102480	0	0	0
41.23000000	1959.99523521	1923.12824036	1742.35199620	1308.06148658	1479.00444649	1306.40885304	1306.70897470	0	0	0
41.24000000	1961.39697190	1922.63298126	1739.70218869	1309.68152116	1477.51175424	1306.97317476	1307.62619381	0	0	0
41.25000000	1962.94708167	1922.42331965	1736.49895171	1311.52182870	1475.71658410	1307.54169182	1308.59254393	0	0	0
41.26000000	1964.47681818	1922.27924273	1733.06126986	1313.33049008	1473.72692267	1307.99891784	1309.51786719	0	0	0
41.27000000	1965.81743511	1921.98073768	1729.70812773	1314.85558618	1471.65075654	1308.22936644	1310.31200571	0	0	0
41.28000000	1966.80018612	1921.30779169	1726.75850991	1315.84519786	1469.59607231	1308.11755122	1310.88480163	0	0	0
41.29000000	1967.27170472	1920.06289924	1724.50663271	1316.07200830	1467.66567974	1307.56147705	1311.15460204	0	0	0
41.30000000	1967.23739970	1918.28091126	1722.99101413	1315.56268518	1465.90894521	1306.59842708	1311.12755603	0	0	0
41.31000000	1966.79634881	1916.13375656	1722.09932393	1314.49373343	1464.34370632	1305.34785123	1310.86161115	0	0	0
41.32000000	1966.04884044	1913.79513564	1721.71728213	1313.04359463	1462.98739317	1303.93026139	1310.41538443	0	0	0
41.33000000	1965.09516298	1911.43874902	1721.73060879	1311.39071032	1461.85743586	1302.46616944	1309.84749292	0	0	0
41.34000000	1964.03560483	1909.23829720	1722.02502396	1309.71352208	1460.97126449	1301.07608730	1309.21655365	0	0	0
41.35000000	1962.97045437	1907.36748069	1722.48624768	1308.19047145	1460.34630917	1299.88052686	1308.58118366	0	0	0
41.36000000	1962	1906	1723	1307	1460	1299	1308	0	0	0
41.37000000	1961.20595205	1905.26158224	1723.47345745	1306.27636527	1459.93546623	1298.52290978	1307.51905451	0	0	0
41.38000000	1960.59570859	1905.08606096	1723.89962251	1305.97708873	1460.09863371	1298.40922386	1307.13413833	0	0	0
41.39000000	1960.15808965	1905.35929630	1724.29295413	1306.01550781	1460.42112746	1298.58680104	1306.82847740	0	0	0
41.40000000	1959.88191524	1905.96714841	1724.66791128	1306.30495996	1460.83457246	1298.98350014	1306.58529766	0	0	0
41.41000000	1959.75600537	1906.79547743	1725.03895292	1306.75878263	1461.27059374	1299.52717996	1306.38782506	0	0	0
41.42000000	1959.76918006	1907.73014351	1725.42053801	1307.29031326	1461.66081629	1300.14569931	1306.21928554	0	0	0
41.43000000	1959.91025933	1908.65700680	1725.82712552	1307.81288929	1461.93686511	1300.76691701	1306.06290505	0	0	0
41.44000000	1960.16692437	1909.46783418	1726.27338148	1308.24416300	1462.03386136	1301.32360697	1305.90277535	0	0	0
41.45000000	1960.50981620	1910.14277500	1726.77707059	1308.56634939	1461.93923892	1301.82208760	1305.73594326	0	0	0
41.46000000	1960.89645828	1910.73001558	1727.35834289	1308.81136396	1461.68070207	1302.32529202	1305.56942843	0	0	0
41.47000000	1961.28403666	1911.27949237	1728.03740975	1309.01240067	1461.28699103	1302.89760969	1305.41050707	0	0	0
41.48000000	1961.62973737	1911.84114185	1728.83448258	1309.20265351	1460.78684599	1303.60343006	1305.26645537	0	0	0
41.49000000	1961.89074644	1912.46490047	1729.76977276	1309.41531644	1460.20900716	1304.50714257	1305.14454953	0	0	0
41.50000000	1962.02424991	1913.20070471	1730.86349168	1309.68358342	1459.58221473	1305.67313667	1305.05206576	0	0	0
41.51000000	1961.98745546	1914.09846245	1732.13583217	1310.04063199	1458.93520515	1307.16574097	1304.99627977	0	0	0
41.52000000	1961.76629286	1915.17017584	1733.58235558	1310.49780295	1458.29172503	1308.96854237	1304.98383629	0	0	0
41.53000000	1961.43203569	1916.31521523	1735.12543412	1311.00155238	1457.66069444	1310.82521480	1305.01950515	0	0	0
41.54000000	1961.07173629	1917.41212708	1736.67390849	1311.48634016	1457.04829222	1312.43507600	1305.10770955	0	0	0
41.55000000	1960.77244697	1918.33945783	1738.13661937	1311.88662616	1456.46069721	1313.49744366	1305.25287267	0	0	0
41.56000000	1960.62122007	1918.97575396	1739.42240745	1312.13687027	1455.90408828	1313.71163553	1305.45941770	0	0	0
41.57000000	1960.70510793	1919.19956191	1740.44011341	1312.17153235	1455.38464428	1312.77696930	1305.73176784	0	0	0
41.58000000	1961.11085515	1918.88982707	1741.09883224	1311.92531070	1454.90856825	1310.39379526	1306.07431940	0	0	0
41.59000000	1961.85997038	1918.01006910	1741.36157022	1311.38344663	1454.48719646	1306.48136667	1306.48577397	0	0	0
41.60000000	1962.82841224	1916.71250394	1741.31161680	1310.64394964	1454.14331792	1301.44733823	1306.95212742	0	0	0
41.61000000	1963.87244544	1915.17487940	1741.04853657	1309.82008749	1453.90127133	1295.76544856	1307.45765642	0	0	0
41.62000000	1964.84833473	1913.57494328	1740.67189411	1309.02512794	1453.78539535	1289.90943628	1307.98663768	0	0	0
41.63000000	1965.61234482	1912.09044338	1740.28125399	1308.37233878	1453.82002866	1284.35304000	1308.52334788	0	0	0
41.64000000	1966.02077786	1910.89909649	1739.97616454	1307.97495713	1454.02948705	1279.56987535	1309.05206321	0	0	0
41.65000000	1965.97956364	1910.13745485	1739.83461906	1307.90559835	1454.40771805	1275.87034020	1309.55637957	0	0	0
41.66000000	1965.54209391	1909.81975590	1739.87056301	1308.11617557	1454.85843395	1273.07985311	1310.01787154	0	0	0
41.67000000	1964.78902386	1909.93762294	1740.08610036	1308.53628594	1455.26866400	1270.93416741	1310.41774000	0	0	0
41.68000000	1963.80100864	1910.48267929	1740.48333510	1309.09552661	1455.52543740	1269.16903644	1310.73718582	0	0	0
41.69000000	1962.65870345	1911.44654825	1741.06437123	1309.72349473	1455.51578338	1267.52021354	1310.95740986	0	0	0
41.70000000	1961.44276345	1912.82085312	1741.83131272	1310.34978746	1455.12673116	1265.72345204	1311.05961300	0	0	0
41.71000000	1960.23384382	1914.59721722	1742.78626356	1310.90400194	1454.24530995	1263.51450529	1311.02499611	0	0	0
41.72000000	1959.11130447	1916.76239288	1743.93177493	1311.32309157	1452.78367594	1260.67043032	1310.83869765	0	0	0
